<svg width="140" height="26" viewBox="0 0 140 26" fill="none" xmlns="http://www.w3.org/2000/svg">
<g clip-path="url(#clip0_1275:14964)">
<g clip-path="url(#clip1_1275:14964)">
<path d="M99.9445 1.29639L96.1853 16.5927L92.0371 1.29639H87.5001L83.3519 16.5927L79.7223 1.29639H74.5371L80.7593 24.6297H85.2964L89.7038 9.33342H89.8334L94.2408 24.6297H98.7778L105 1.29639H99.9445Z" fill="#090909"/>
<path d="M120.167 12.5742C121.722 11.6668 122.889 9.98157 122.889 7.51861C122.889 3.88898 120.556 1.29639 115.5 1.29639H106.037V24.6297H110.833H115.241C120.296 24.6297 123.278 22.426 123.278 17.889C123.407 15.1668 121.722 13.0927 120.167 12.5742ZM110.963 5.44453H114.982C116.926 5.44453 117.963 6.22231 117.963 8.16676C117.963 9.98157 116.926 10.889 114.982 10.889H110.963V5.44453ZM115.241 20.4816H110.963V14.9075H115.241C117.315 14.9075 118.352 15.8149 118.352 17.7593C118.352 19.5742 117.185 20.4816 115.241 20.4816Z" fill="#090909"/>
<path d="M130.278 19.9631V1.29639H125.352V24.6297H140V19.9631H130.278Z" fill="#090909"/>
<path d="M68.7038 1.29639L63.6482 17.6297H63.5186L58.463 1.29639H53.2778L60.926 24.6297H66.2408L73.7593 1.29639H68.7038Z" fill="#090909"/>
<path d="M35.5185 8.68519C33.0556 8.68519 31.1111 10.6296 31.1111 12.963C31.1111 15.2963 33.0556 17.2407 35.3889 17.2407C37.7222 17.2407 39.6667 15.2963 39.6667 12.963C39.6667 10.6296 37.8519 8.68519 35.5185 8.68519ZM35.5185 0C30.8519 0 26.7037 2.46296 24.5 6.09259C24.3704 6.22222 24.1111 6.22222 24.1111 6.09259C21.7778 2.46296 17.6296 0 12.963 0C5.7037 0 0 5.7037 0 12.963C0 20.2222 5.7037 25.9259 12.963 25.9259C17.6296 25.9259 21.7778 23.463 23.9815 19.8333C24.1111 19.7037 24.3704 19.7037 24.3704 19.8333C26.5741 23.5926 30.7222 25.9259 35.3889 25.9259C42.5185 25.9259 48.3519 20.2222 48.3519 12.963C48.4815 5.7037 42.6482 0 35.5185 0ZM4.40741 10.6296C5.31482 6.61111 8.68519 4.01852 12.963 4.01852C17.1111 4.01852 20.6111 6.61111 21.5185 10.6296C21.5185 10.7593 21.3889 10.8889 21.2593 10.8889H4.66667C4.40741 11.0185 4.27778 10.7593 4.40741 10.6296ZM21.5185 15.2963C20.6111 19.3148 17.1111 21.9074 12.963 21.9074C8.81482 21.9074 5.31482 19.1852 4.40741 15.2963C4.40741 15.1667 4.53704 15.037 4.66667 15.037H21.2593C21.3889 14.9074 21.5185 15.1667 21.5185 15.2963ZM35.5185 21.9074C30.5926 21.9074 26.7037 18.1481 26.7037 12.963C26.7037 7.64815 30.5926 4.01852 35.5185 4.01852C40.4444 4.01852 44.3333 7.77778 44.3333 12.963C44.3333 18.2778 40.4444 21.9074 35.5185 21.9074Z" fill="#090909"/>
</g>
</g>
<defs>
<clipPath id="clip0_1275:14964">
<rect width="140" height="25.9259" fill="white"/>
</clipPath>
<clipPath id="clip1_1275:14964">
<rect width="140" height="25.9259" fill="white"/>
</clipPath>
</defs>
</svg>
