<svg width="480" height="360" viewBox="0 0 480 360" fill="none" xmlns="http://www.w3.org/2000/svg">
<path d="M480 360L480 0L0 0L0 360L480 360Z" fill="white"/>
<path d="M54.9707 268.326V150.038L64.0427 140.319H408.745L417.815 150.038V268.326H54.9707Z" fill="#F050FF"/>
<path d="M62.7461 276.101V157.814L71.8181 148.095H416.52L425.59 157.814V276.101H62.7461Z" fill="#00FF82"/>
<path d="M197.934 201.679V187.254H183.387C174.109 187.254 166.587 179.733 166.587 170.454C166.587 143.337 200.359 143.949 213.469 93.2421C219.475 70.01 227.026 62.1826 240.281 62.1826C253.536 62.1826 261.086 70.01 267.093 93.2421C280.203 143.949 313.974 143.337 313.974 170.454C313.974 179.733 306.453 187.254 297.174 187.254H282.627V201.679" fill="white"/>
<path d="M197.934 201.679V187.254H183.387C174.109 187.254 166.587 179.733 166.587 170.454C166.587 143.337 200.359 143.949 213.469 93.2421C219.475 70.01 227.026 62.1826 240.281 62.1826C253.536 62.1826 261.086 70.01 267.093 93.2421C280.203 143.949 313.974 143.337 313.974 170.454C313.974 179.733 306.453 187.254 297.174 187.254H282.627V201.679" stroke="black" stroke-miterlimit="10"/>
<path d="M271.529 121.896H215.835C213.941 121.896 212.406 123.43 212.406 125.324V160.655V190.655V195.963C212.406 197.856 213.941 199.391 215.835 199.391H271.529C273.423 199.391 274.958 197.856 274.958 195.963V190.655V159.653V125.324C274.958 123.43 273.423 121.896 271.529 121.896Z" fill="#00FF82"/>
<path d="M264.727 115.093H209.032C207.138 115.093 205.604 116.628 205.604 118.521V153.853V183.853V189.16C205.604 191.054 207.138 192.589 209.032 192.589H264.727C266.621 192.589 268.155 191.054 268.155 189.16V183.853V152.85V118.521C268.155 116.628 266.621 115.093 264.727 115.093Z" fill="#F050FF"/>
<path d="M268.128 118.494H212.433C210.54 118.494 209.005 120.029 209.005 121.923V157.254V187.254V192.561C209.005 194.455 210.54 195.99 212.433 195.99H268.128C270.022 195.99 271.557 194.455 271.557 192.561V187.254V156.252V121.923C271.557 120.029 270.022 118.494 268.128 118.494Z" fill="white" stroke="black" stroke-miterlimit="10"/>
<path d="M183.387 187.254C190.786 187.254 194.733 187.254 206.92 187.254H222.089C224.16 187.254 225.839 185.575 225.839 183.504C225.839 181.433 224.16 179.754 222.089 179.754C224.16 179.754 225.839 178.075 225.839 176.004C225.839 173.933 224.16 172.254 222.089 172.254C224.16 172.254 225.839 170.575 225.839 168.504C225.839 166.433 224.16 164.754 222.089 164.754C224.16 164.754 225.839 163.075 225.839 161.004C225.839 158.933 224.16 157.254 222.089 157.254H209.004V151.499C209.004 149.428 207.326 147.749 205.254 147.749C203.183 147.749 201.504 149.428 201.504 151.499C201.504 151.499 201.504 154.455 201.504 157.254H188.246" fill="white"/>
<path d="M183.387 187.254C190.786 187.254 194.733 187.254 206.92 187.254H222.089C224.16 187.254 225.839 185.575 225.839 183.504C225.839 181.433 224.16 179.754 222.089 179.754C224.16 179.754 225.839 178.075 225.839 176.004C225.839 173.933 224.16 172.254 222.089 172.254C224.16 172.254 225.839 170.575 225.839 168.504C225.839 166.433 224.16 164.754 222.089 164.754C224.16 164.754 225.839 163.075 225.839 161.004C225.839 158.933 224.16 157.254 222.089 157.254H209.004V151.499C209.004 149.428 207.326 147.749 205.254 147.749C203.183 147.749 201.504 149.428 201.504 151.499C201.504 151.499 201.504 154.455 201.504 157.254H188.246" stroke="black" stroke-miterlimit="10"/>
<path d="M212.292 164.754H222.088" stroke="black" stroke-miterlimit="10"/>
<path d="M212.292 172.254H222.088" stroke="black" stroke-miterlimit="10"/>
<path d="M212.292 179.754H222.088" stroke="black" stroke-miterlimit="10"/>
<path d="M297.175 187.254C289.776 187.254 285.828 187.254 273.641 187.254H258.473C256.402 187.254 254.723 185.575 254.723 183.504C254.723 181.433 256.402 179.754 258.473 179.754C256.402 179.754 254.723 178.075 254.723 176.004C254.723 173.933 256.402 172.254 258.473 172.254C256.402 172.254 254.723 170.575 254.723 168.504C254.723 166.433 256.402 164.754 258.473 164.754C256.402 164.754 254.723 163.075 254.723 161.004C254.723 158.933 256.402 157.254 258.473 157.254H271.557V151.499C271.557 149.428 273.236 147.749 275.307 147.749C277.378 147.749 279.057 149.428 279.057 151.499C279.057 151.499 279.057 154.455 279.057 157.254H292.315" fill="white"/>
<path d="M297.175 187.254C289.776 187.254 285.828 187.254 273.641 187.254H258.473C256.402 187.254 254.723 185.575 254.723 183.504C254.723 181.433 256.402 179.754 258.473 179.754C256.402 179.754 254.723 178.075 254.723 176.004C254.723 173.933 256.402 172.254 258.473 172.254C256.402 172.254 254.723 170.575 254.723 168.504C254.723 166.433 256.402 164.754 258.473 164.754C256.402 164.754 254.723 163.075 254.723 161.004C254.723 158.933 256.402 157.254 258.473 157.254H271.557V151.499C271.557 149.428 273.236 147.749 275.307 147.749C277.378 147.749 279.057 149.428 279.057 151.499C279.057 151.499 279.057 154.455 279.057 157.254H292.315" stroke="black" stroke-miterlimit="10"/>
<path d="M268.269 164.754H258.473" stroke="black" stroke-miterlimit="10"/>
<path d="M268.269 172.254H258.473" stroke="black" stroke-miterlimit="10"/>
<path d="M268.269 179.754H258.473" stroke="black" stroke-miterlimit="10"/>
<path d="M245.043 100.128C245.043 100.128 243.698 103.961 239.198 103.794" stroke="black" stroke-miterlimit="10" stroke-linejoin="round"/>
<path d="M235.519 95.88C236.579 95.88 237.439 95.0204 237.439 93.96C237.439 92.8996 236.579 92.04 235.519 92.04C234.458 92.04 233.599 92.8996 233.599 93.96C233.599 95.0204 234.458 95.88 235.519 95.88Z" fill="black"/>
<path d="M245.043 95.88C246.103 95.88 246.963 95.0204 246.963 93.96C246.963 92.8996 246.103 92.04 245.043 92.04C243.983 92.04 243.123 92.8996 243.123 93.96C243.123 95.0204 243.983 95.88 245.043 95.88Z" fill="black"/>
<path d="M166.587 170.454C166.587 179.732 174.109 187.254 183.387 187.254" stroke="black" stroke-miterlimit="10"/>
<path d="M421.703 153.926H58.8594V272.213H421.703V153.926Z" fill="white" stroke="black" stroke-miterlimit="10" stroke-linecap="round" stroke-linejoin="round"/>
<path d="M412.632 144.207H67.9305L58.8594 153.926H421.703L412.632 144.207Z" fill="white" stroke="black" stroke-miterlimit="10" stroke-linecap="round" stroke-linejoin="round"/>
<path d="M58.8594 298.406C61.0657 278.078 75.8907 277.69 81.5496 245.108C85.816 220.543 94.4752 209.493 107.684 209.493C117.591 209.493 126.716 215.597 124.34 236.361C118.928 283.645 139.243 274.226 138.873 298.406H58.8594Z" fill="black"/>
<path d="M116.597 234.782C117.538 234.782 118.302 234.019 118.302 233.077C118.302 232.135 117.538 231.372 116.597 231.372C115.655 231.372 114.892 232.135 114.892 233.077C114.892 234.019 115.655 234.782 116.597 234.782Z" fill="white"/>
<path d="M112.087 240.934C112.087 240.934 115.612 238.982 118.302 242.276" stroke="white" stroke-miterlimit="10" stroke-linejoin="round"/>
<path d="M144.357 298.406C144.357 286.261 145.965 282.011 156.325 266.293C166.684 250.574 168.757 245.752 171.079 231.641C173.065 219.572 178.565 209.493 190.797 209.493C203.029 209.493 208.529 219.572 210.516 231.641C212.838 245.752 214.91 250.574 225.27 266.293C235.629 282.011 237.237 286.261 237.237 298.406" fill="black"/>
<path d="M195.287 242.275C196.229 242.275 196.992 241.511 196.992 240.569C196.992 239.628 196.229 238.864 195.287 238.864C194.345 238.864 193.582 239.628 193.582 240.569C193.582 241.511 194.345 242.275 195.287 242.275Z" fill="white"/>
<path d="M186.307 242.275C187.248 242.275 188.012 241.511 188.012 240.569C188.012 239.628 187.248 238.864 186.307 238.864C185.365 238.864 184.602 239.628 184.602 240.569C184.602 241.511 185.365 242.275 186.307 242.275Z" fill="white"/>
<path d="M187.562 247.936H194.031" stroke="white" stroke-miterlimit="10" stroke-linejoin="round"/>
<path d="M421.703 298.406C419.497 278.078 404.672 277.69 399.013 245.108C394.746 220.543 386.087 209.493 372.878 209.493C362.971 209.493 353.846 215.597 356.223 236.361C361.634 283.645 341.32 274.226 341.69 298.406H421.703Z" fill="black"/>
<path d="M363.965 234.782C364.907 234.782 365.67 234.019 365.67 233.077C365.67 232.135 364.907 231.372 363.965 231.372C363.023 231.372 362.26 232.135 362.26 233.077C362.26 234.019 363.023 234.782 363.965 234.782Z" fill="white"/>
<path d="M368.475 240.934C368.475 240.934 364.95 238.982 362.26 242.276" stroke="white" stroke-miterlimit="10" stroke-linejoin="round"/>
<path d="M336.205 298.406C336.205 286.261 334.597 282.011 324.238 266.293C313.878 250.574 311.805 245.752 309.483 231.641C307.497 219.572 301.997 209.493 289.765 209.493C277.533 209.493 272.033 219.572 270.046 231.641C267.724 245.752 265.652 250.574 255.292 266.293C244.933 282.011 243.325 286.261 243.325 298.406" fill="black"/>
<path d="M285.275 242.275C286.217 242.275 286.981 241.511 286.981 240.569C286.981 239.628 286.217 238.864 285.275 238.864C284.334 238.864 283.57 239.628 283.57 240.569C283.57 241.511 284.334 242.275 285.275 242.275Z" fill="white"/>
<path d="M294.256 242.275C295.198 242.275 295.961 241.511 295.961 240.569C295.961 239.628 295.198 238.864 294.256 238.864C293.314 238.864 292.551 239.628 292.551 240.569C292.551 241.511 293.314 242.275 294.256 242.275Z" fill="white"/>
<path d="M293 247.936H286.531" stroke="white" stroke-miterlimit="10" stroke-linejoin="round"/>
<path d="M124.681 209.493L140.651 191.395L44.1523 169.642" stroke="black" stroke-miterlimit="10"/>
<path d="M39.1055 168.504C41.6788 168.158 44.9638 167.319 47.1489 166.139L44.8142 169.791L45.3562 174.091C43.889 172.087 41.2816 169.92 39.1055 168.504Z" fill="black"/>
<path d="M192.715 204.393L197.452 181.125L137.473 104.207" stroke="black" stroke-miterlimit="10"/>
<path d="M134.292 100.128C136.501 101.492 139.573 102.926 142.012 103.399L137.89 104.743L135.583 108.412C135.719 105.932 135.077 102.602 134.292 100.128Z" fill="black"/>
<path d="M282.628 201.679L275.949 183.504L350.295 121.798" stroke="black" stroke-miterlimit="10"/>
<path d="M354.276 118.494C352.98 120.744 351.64 123.858 351.242 126.31L349.773 122.231L346.035 120.037C348.518 120.097 351.826 119.354 354.276 118.494Z" fill="black"/>
<path d="M357.261 205.865L346.054 183.068L442.565 172.802" stroke="black" stroke-miterlimit="10"/>
<path d="M447.708 172.254C445.383 173.41 442.543 175.262 440.854 177.083L441.889 172.873L439.992 168.977C442.026 170.402 445.193 171.615 447.708 172.254Z" fill="black"/>
</svg>
