<svg width="189" height="101" viewBox="0 0 189 101" fill="none"
    xmlns="http://www.w3.org/2000/svg">
    <path d="M138.2 0C119.95 0 104.05 9.35 95.2 23.7C94.8 24.35 93.9 24.35 93.5 23.7C84.65 9.35 68.75 0 50.5 0C22.5 0 0 22.05 0 50.5C0 78.8 22.5 101 50.5 101C68.75 101 84.65 91.6 93.5 77.25C93.9 76.6 94.8 76.6 95.2 77.25C104.05 91.6 119.95 101 138.2 101C166.25 101 188.7 78.8 188.7 50.5C188.7 22.05 166.25 0 138.2 0ZM50.5 13.5C68.35 13.5 82.75 25.15 86.15 42.55C86.25 43.15 85.8 43.75 85.15 43.75H15.8C15.15 43.75 14.7 43.15 14.8 42.55C18.25 25.15 32.65 13.5 50.5 13.5ZM50.5 87.5C32.6 87.5 18.2 75.8 14.8 58.45C14.7 57.85 15.15 57.25 15.8 57.25H85.2C85.85 57.25 86.3 57.85 86.2 58.45C82.8 75.8 68.4 87.5 50.5 87.5ZM138.2 87.5C117.7 87.5 101.75 72.2 101.75 50.6C101.75 28.85 117.7 13.5 138.2 13.5C158.7 13.5 174.65 28.8 174.65 50.6C174.65 72.2 158.7 87.5 138.2 87.5ZM138.2 33.7C128.9 33.7 121.4 41.25 121.4 50.5C121.4 59.75 128.95 67.3 138.2 67.3C147.5 67.3 155 59.75 155 50.5C155 41.25 147.5 33.7 138.2 33.7Z" fill="#090909"/>
</svg>
